# xmcd CD database file
#
# Track frame offsets:
#	150
#	30515
#	62648
#	84535
#	122854
#	151967
#	180857
#	213568
#	236529
#	284335
#
# Disc length: 4409 seconds
#
# Revision: 0
# Processed by: cddbd v1.5.1PL0 Copyright (c) Steve Scherf et al.
# Submitted via: CDex 1.51
#
DISCID=8011370a
DTITLE=Gustavo Bergalli - Gustavo Bergalli and Mixtura
DYEAR=2004
DGENRE=Jazz
TTITLE0=El rioplatense, tango para Gustavo
TTITLE1=Chacarera del 55
TTITLE2=La rioplatense, milonga para Yiye
TTITLE3=Volver
TTITLE4=Tráfico porteño
TTITLE5=Raynald's dream
TTITLE6=Chiquilin de bachin
TTITLE7=Dedicación
TTITLE8=Milonga mía
TTITLE9=Alfonsina y el mar
EXTD=YEAR: 2004
EXTT0=
EXTT1=
EXTT2=
EXTT3=
EXTT4=
EXTT5=
EXTT6=
EXTT7=
EXTT8=
EXTT9=
PLAYORDER=
